# xmcd
#
# Track frame offsets:
#	150
#	13265
#	26278
#	38368
#	51272
#	64884
#	74348
#	86016
#	95927
#	108984
#	122563
#	138851
#	151851
#	164337
#	175965
#	187438
#	200158
#	212246
#	220845
#	233961
# Disc length: 3282 seconds
# Revision: 10
# Processed by: cddbd v1.5.1PL0 Copyright (c) Steve Scherf et al.
#
# Submitted via: libkcddb 0.10
#
DISCID=280cd014
DTITLE=Various Artist - Country Hits CD 5
DYEAR=2005
DGENRE=Unknown
TTITLE0=Hey Good Lookin'
TTITLE1=The Great Speckled Bird
TTITLE2=Crazy
TTITLE3=Four Walls
TTITLE4=Coal Miner's Daughter
TTITLE5=I'm Walking The Floor Over You
TTITLE6=It Wasn't God That Made Honky Tonk Angels
TTITLE7=I've Been Everywhere
TTITLE8=Please Help Me I'm Fallin'
TTITLE9=Big Bad John
TTITLE10=It Was Almost Like A Song
TTITLE11=King Of The Road
TTITLE12=Heartaches By The Numbers
TTITLE13=Jolene
TTITLE14=Hello Darlin'
TTITLE15=Behind Closed Doors
TTITLE16=Ring Of Fire
TTITLE17=Kiss An Angel Good Mornin'
TTITLE18=I Fall To Pieces
TTITLE19=Your Cheatin' Heart
EXTD=
EXTT0=
EXTT1=
EXTT2=
EXTT3=
EXTT4=
EXTT5=
EXTT6=
EXTT7=
EXTT8=
EXTT9=
EXTT10=
EXTT11=
EXTT12=
EXTT13=
EXTT14=
EXTT15=
EXTT16=
EXTT17=
EXTT18=
EXTT19=
PLAYORDER=
